<svg xmlns="http://www.w3.org/2000/svg" xmlns:xlink="http://www.w3.org/1999/xlink" contentStyleType="text/css" data-diagram-type="DESCRIPTION" height="1315px" preserveAspectRatio="none" style="width:1240px;height:1315px;background:#FEFEFE;" version="1.1" viewBox="0 0 1240 1315" width="1240px" zoomAndPan="magnify"><title>System Architecture: Civic Pulse (Cooperative 3D Mapping)</title><defs/><g><rect fill="#FEFEFE" height="1315" style="stroke:none;stroke-width:1;" width="1240" x="0" y="0"/><g class="title" data-source-line="13"><text fill="#000000" font-family="sans-serif" font-size="14" font-weight="bold" lengthAdjust="spacing" textLength="469.5195" x="378.3267" y="22.9951">System Architecture: Civic Pulse (Cooperative 3D Mapping)</text></g><!--cluster Fleet Vehicle (Edge Node)--><g class="cluster" data-qualified-name="Fleet Vehicle .Edge Node." data-source-line="15" id="ent0002"><rect fill="none" height="439.48" rx="2.5" ry="2.5" style="stroke:#181818;stroke-width:1;" width="1169" x="7" y="44.2969"/><text fill="#000000" font-family="sans-serif" font-size="14" font-weight="bold" lengthAdjust="spacing" textLength="205.1055" x="488.9473" y="59.292">Fleet Vehicle (Edge Node)</text></g><!--cluster Sensor--><g class="cluster" data-qualified-name="Fleet Vehicle .Edge Node..Sensor" data-source-line="17" id="ent0003"><rect fill="#E6F7FF" height="119.3" rx="2.5" ry="2.5" style="stroke:#1890FF;stroke-width:1;" width="255" x="39" y="95.2969"/><text fill="#000000" font-family="sans-serif" font-size="14" font-weight="bold" lengthAdjust="spacing" textLength="128.3174" x="102.3413" y="110.292">Ultrasonic Array</text><text fill="#000000" font-family="sans-serif" font-size="14" font-weight="bold" lengthAdjust="spacing" textLength="163.5498" x="84.7251" y="126.5889">(40kHz Transducers)</text></g><!--cluster Network--><g class="cluster" data-qualified-name="Network" data-source-line="45" id="ent0020"><rect fill="none" height="96.3" rx="2.5" ry="2.5" style="stroke:#181818;stroke-width:1;" width="166" x="573" y="532.7769"/><text fill="#000000" font-family="sans-serif" font-size="14" font-weight="bold" lengthAdjust="spacing" textLength="66.6709" x="622.6646" y="547.772">Network</text></g><!--cluster People's Multimodal Transport Platform\n(Cloud Cooperative)--><g class="cluster" data-qualified-name="People.s Multimodal Transport Platform.n.Cloud Cooperative." data-source-line="49" id="ent0022"><rect fill="none" height="478.59" rx="2.5" ry="2.5" style="stroke:#181818;stroke-width:1;" width="524" x="560" y="678.0769"/><text fill="#000000" font-family="sans-serif" font-size="14" font-weight="bold" lengthAdjust="spacing" textLength="315.4307" x="664.2847" y="693.072">People's Multimodal Transport Platform</text><text fill="#000000" font-family="sans-serif" font-size="14" font-weight="bold" lengthAdjust="spacing" textLength="157.8418" x="743.0791" y="709.3689">(Cloud Cooperative)</text></g><!--cluster Public & Municipal Beneficiaries--><g class="cluster" data-qualified-name="Public . Municipal Beneficiaries" data-source-line="70" id="ent0035"><rect fill="none" height="103.59" rx="2.5" ry="2.5" style="stroke:#181818;stroke-width:1;" width="572" x="598" y="1205.6669"/><text fill="#000000" font-family="sans-serif" font-size="14" font-weight="bold" lengthAdjust="spacing" textLength="253.5996" x="757.2002" y="1220.662">Public &amp; Municipal Beneficiaries</text></g><!--entity IMU--><g class="entity" data-qualified-name="Fleet Vehicle .Edge Node..IMU" data-source-line="22" id="ent0006"><rect fill="#E6F7FF" height="52.5938" rx="2.5" ry="2.5" style="stroke:#1890FF;stroke-width:0.5;" width="171.6143" x="570.19" y="146.1469"/><text fill="#000000" font-family="sans-serif" font-size="14" lengthAdjust="spacing" textLength="78.8936" x="580.19" y="169.142">IMU Sensor</text><text fill="#000000" font-family="sans-serif" font-size="14" lengthAdjust="spacing" textLength="151.6143" x="580.19" y="185.4389">(Accelerometer/Gyro)</text></g><!--entity GPS--><g class="entity" data-qualified-name="Fleet Vehicle .Edge Node..GPS" data-source-line="23" id="ent0007"><rect fill="#E6F7FF" height="36.2969" rx="2.5" ry="2.5" style="stroke:#1890FF;stroke-width:0.5;" width="103.5352" x="1056.23" y="154.2969"/><text fill="#000000" font-family="sans-serif" font-size="14" lengthAdjust="spacing" textLength="83.5352" x="1066.23" y="177.292">GPS Module</text></g><!--entity ECU--><g class="entity" data-qualified-name="Fleet Vehicle .Edge Node..ECU" data-source-line="24" id="ent0008"><rect fill="#E6F7FF" height="52.5938" rx="2.5" ry="2.5" style="stroke:#1890FF;stroke-width:0.5;" width="184.4453" x="563.78" y="285.5969"/><text fill="#000000" font-family="sans-serif" font-size="14" lengthAdjust="spacing" textLength="69.8496" x="573.78" y="308.592">Local ECU</text><text fill="#000000" font-family="sans-serif" font-size="14" lengthAdjust="spacing" textLength="164.4453" x="573.78" y="324.8889">(ESP32 Microcontroller)</text></g><!--entity Telemetry--><g class="entity" data-qualified-name="Fleet Vehicle .Edge Node..Telemetry" data-source-line="25" id="ent0009"><rect fill="#E6F7FF" height="52.5938" rx="2.5" ry="2.5" style="stroke:#1890FF;stroke-width:0.5;" width="146.8066" x="582.6" y="415.1869"/><text fill="#000000" font-family="sans-serif" font-size="14" lengthAdjust="spacing" textLength="126.8066" x="592.6" y="438.182">Telemetry Module</text><text fill="#000000" font-family="sans-serif" font-size="14" lengthAdjust="spacing" textLength="98.5811" x="592.6" y="454.4789">(Cellular/WiFi)</text></g><g class="entity" data-qualified-name="Fleet Vehicle .Edge Node..GMN10" data-source-line="28" id="ent0011"><path d="M321.3,152.3069 L321.3,192.5725 L534.7038,192.5725 L534.7038,162.3069 L524.7038,152.3069 L321.3,152.3069" fill="#FEFFDD" style="stroke:#181818;stroke-width:0.5;"/><path d="M524.7038,152.3069 L524.7038,162.3069 L534.7038,162.3069 L524.7038,152.3069" fill="#FEFFDD" style="stroke:#181818;stroke-width:1;"/><text fill="#000000" font-family="sans-serif" font-size="13" lengthAdjust="spacing" textLength="190.6265" x="327.3" y="169.3738">- Emits inaudible 40kHz chirp</text><text fill="#000000" font-family="sans-serif" font-size="13" lengthAdjust="spacing" textLength="192.4038" x="327.3" y="184.5066">- Records Time of Flight (ToF)</text></g><g class="entity" data-qualified-name="Fleet Vehicle .Edge Node..GMN13" data-source-line="33" id="ent0014"><path d="M776.84,152.3069 L776.84,168.4469 L741.9,172.4469 L776.84,176.4469 L776.84,192.5725 A0,0 0 0 0 776.84,192.5725 L1021.1696,192.5725 A0,0 0 0 0 1021.1696,192.5725 L1021.1696,162.3069 L1011.1696,152.3069 L776.84,152.3069 A0,0 0 0 0 776.84,152.3069" fill="#FEFFDD" style="stroke:#181818;stroke-width:0.5;"/><path d="M1011.1696,152.3069 L1011.1696,162.3069 L1021.1696,162.3069 L1011.1696,152.3069" fill="#FEFFDD" style="stroke:#181818;stroke-width:0.5;"/><text fill="#000000" font-family="sans-serif" font-size="13" lengthAdjust="spacing" textLength="193.0767" x="782.84" y="169.3738">- Detects vehicle tilt/vibration</text><text fill="#000000" font-family="sans-serif" font-size="13" lengthAdjust="spacing" textLength="223.3296" x="782.84" y="184.5066">- Enables "Mathematical Leveling"</text></g><!--entity Emitter--><g class="entity" data-qualified-name="Fleet Vehicle .Edge Node..Sensor.Emitter" data-source-line="18" id="ent0004"><rect fill="#E6F7FF" height="36.2969" rx="2.5" ry="2.5" style="stroke:#1890FF;stroke-width:0.5;" width="71.7207" x="63.14" y="154.2969"/><text fill="#000000" font-family="sans-serif" font-size="14" lengthAdjust="spacing" textLength="51.7207" x="73.14" y="177.292">Emitter</text></g><!--entity Receiver--><g class="entity" data-qualified-name="Fleet Vehicle .Edge Node..Sensor.Receiver" data-source-line="19" id="ent0005"><rect fill="#E6F7FF" height="36.2969" rx="2.5" ry="2.5" style="stroke:#1890FF;stroke-width:0.5;" width="81.1953" x="169.4" y="154.2969"/><text fill="#000000" font-family="sans-serif" font-size="14" lengthAdjust="spacing" textLength="61.1953" x="179.4" y="177.292">Receiver</text></g><!--entity Net--><g class="entity" data-qualified-name="Network.Net" data-source-line="46" id="ent0021"><path d="M588.99,577.7769 C588.99,567.7769 655.9983,567.7769 655.9983,567.7769 C655.9983,567.7769 723.0066,567.7769 723.0066,577.7769 L723.0066,603.0738 C723.0066,613.0738 655.9983,613.0738 655.9983,613.0738 C655.9983,613.0738 588.99,613.0738 588.99,603.0738 L588.99,577.7769" fill="#F1F1F1" style="stroke:#181818;stroke-width:0.5;"/><path d="M588.99,577.7769 C588.99,587.7769 655.9983,587.7769 655.9983,587.7769 C655.9983,587.7769 723.0066,587.7769 723.0066,577.7769" fill="none" style="stroke:#181818;stroke-width:0.5;"/><text fill="#000000" font-family="sans-serif" font-size="14" lengthAdjust="spacing" textLength="114.0166" x="598.99" y="604.772">Internet / 4G-5G</text></g><!--entity API--><g class="entity" data-qualified-name="People.s Multimodal Transport Platform.n.Cloud Cooperative..API" data-source-line="51" id="ent0023"><rect fill="#E6F7FF" height="36.2969" rx="2.5" ry="2.5" style="stroke:#1890FF;stroke-width:0.5;" width="149.0898" x="581.46" y="729.0769"/><text fill="#000000" font-family="sans-serif" font-size="14" lengthAdjust="spacing" textLength="129.0898" x="591.46" y="752.072">Data Ingestion API</text></g><!--entity SLAM--><g class="entity" data-qualified-name="People.s Multimodal Transport Platform.n.Cloud Cooperative..SLAM" data-source-line="52" id="ent0024"><rect fill="#E6F7FF" height="36.2969" rx="2.5" ry="2.5" style="stroke:#1890FF;stroke-width:0.5;" width="160.7725" x="575.61" y="851.9269"/><text fill="#000000" font-family="sans-serif" font-size="14" lengthAdjust="spacing" textLength="140.7725" x="585.61" y="874.922">SLAM Fusion Engine</text></g><!--entity VoxelDB--><g class="entity" data-qualified-name="People.s Multimodal Transport Platform.n.Cloud Cooperative..VoxelDB" data-source-line="53" id="ent0025"><rect fill="#E6F7FF" height="52.5938" rx="2.5" ry="2.5" style="stroke:#1890FF;stroke-width:0.5;" width="130.1816" x="609.91" y="974.7769"/><text fill="#000000" font-family="sans-serif" font-size="14" lengthAdjust="spacing" textLength="110.1816" x="619.91" y="997.772">Voxel Database</text><text fill="#000000" font-family="sans-serif" font-size="14" lengthAdjust="spacing" textLength="96.332" x="619.91" y="1014.0689">(3D City Grid)</text></g><!--entity Monitor--><g class="entity" data-qualified-name="People.s Multimodal Transport Platform.n.Cloud Cooperative..Monitor" data-source-line="54" id="ent0026"><rect fill="#E6F7FF" height="36.2969" rx="2.5" ry="2.5" style="stroke:#1890FF;stroke-width:0.5;" width="173.7744" x="853.11" y="982.9169"/><text fill="#000000" font-family="sans-serif" font-size="14" lengthAdjust="spacing" textLength="153.7744" x="863.11" y="1005.912">Infrastructure Monitor</text></g><!--entity Routing--><g class="entity" data-qualified-name="People.s Multimodal Transport Platform.n.Cloud Cooperative..Routing" data-source-line="55" id="ent0027"><rect fill="#E6F7FF" height="36.2969" rx="2.5" ry="2.5" style="stroke:#1890FF;stroke-width:0.5;" width="198.4863" x="575.76" y="1104.3669"/><text fill="#000000" font-family="sans-serif" font-size="14" lengthAdjust="spacing" textLength="178.4863" x="585.76" y="1127.362">Routing &amp; Access Service</text></g><g class="entity" data-qualified-name="People.s Multimodal Transport Platform.n.Cloud Cooperative..GMN32" data-source-line="64" id="ent0033"><path d="M771.56,842.3769 L771.56,866.0769 L736.7,870.0769 L771.56,874.0769 L771.56,897.7753 A0,0 0 0 0 771.56,897.7753 L1068.4482,897.7753 A0,0 0 0 0 1068.4482,897.7753 L1068.4482,852.3769 L1058.4482,842.3769 L771.56,842.3769 A0,0 0 0 0 771.56,842.3769" fill="#FEFFDD" style="stroke:#181818;stroke-width:0.5;"/><path d="M1058.4482,842.3769 L1058.4482,852.3769 L1068.4482,852.3769 L1058.4482,842.3769" fill="#FEFFDD" style="stroke:#181818;stroke-width:0.5;"/><text fill="#000000" font-family="sans-serif" font-size="13" lengthAdjust="spacing" textLength="275.8882" x="777.56" y="859.4438">- Corrects GPS Drift using static structures</text><text fill="#000000" font-family="sans-serif" font-size="13" lengthAdjust="spacing" textLength="202.4014" x="777.56" y="874.5766">- Fuses multiple vehicle passes</text><text fill="#000000" font-family="sans-serif" font-size="13" lengthAdjust="spacing" textLength="203.2837" x="777.56" y="889.7094">- Builds Probabilistic Voxel Map</text></g><!--entity UserApp--><g class="entity" data-qualified-name="Public . Municipal Beneficiaries.UserApp" data-source-line="71" id="ent0036"><rect fill="#E6F7FF" height="52.5938" rx="2.5" ry="2.5" style="stroke:#1890FF;stroke-width:0.5;" width="127.3105" x="614.34" y="1240.6669"/><text fill="#000000" font-family="sans-serif" font-size="14" lengthAdjust="spacing" textLength="107.3105" x="624.34" y="1263.662">Navigation App</text><text fill="#000000" font-family="sans-serif" font-size="14" lengthAdjust="spacing" textLength="80.8145" x="624.34" y="1279.9589">(User View)</text></g><!--entity GovApp--><g class="entity" data-qualified-name="Public . Municipal Beneficiaries.GovApp" data-source-line="72" id="ent0037"><rect fill="#E6F7FF" height="52.5938" rx="2.5" ry="2.5" style="stroke:#1890FF;stroke-width:0.5;" width="207.0244" x="946.49" y="1240.6669"/><text fill="#000000" font-family="sans-serif" font-size="14" lengthAdjust="spacing" textLength="187.0244" x="956.49" y="1263.662">Road Maintenance System</text><text fill="#000000" font-family="sans-serif" font-size="14" lengthAdjust="spacing" textLength="115.5615" x="956.49" y="1279.9589">(Municipal View)</text></g><!--entity DigitalTwin--><g class="entity" data-qualified-name="Public . Municipal Beneficiaries.DigitalTwin" data-source-line="73" id="ent0038"><rect fill="#E6F7FF" height="36.2969" rx="2.5" ry="2.5" style="stroke:#1890FF;stroke-width:0.5;" width="134.5088" x="776.75" y="1248.8069"/><text fill="#000000" font-family="sans-serif" font-size="14" lengthAdjust="spacing" textLength="114.5088" x="786.75" y="1271.802">City Digital Twin</text></g><!--link Sensor to GMN10--><g class="link" data-entity-1="ent0003" data-entity-2="ent0011" data-link-type="association" data-source-line="28" id="lnk12"><path d="M294.0429,172.4469 C294.132,172.4469 294.221,172.4469 294.31,172.4469 C294.6662,172.4469 295.0223,172.4469 295.3784,172.4469 C298.2275,172.4469 301.0762,172.4469 303.925,172.4469 C309.6225,172.4469 315.32,172.4469 321.02,172.4469" fill="none" id="Sensor-GMN10" style="stroke:#000000;stroke-width:1;stroke-dasharray:7,7;"/></g><!--link Sensor to ECU--><g class="link" data-entity-1="ent0003" data-entity-2="ent0008" data-link-type="dependency" data-source-line="38" id="lnk16"><path d="M282.5818,214.6891 C282.6212,214.8775 282.6617,215.0656 282.7034,215.2533 C282.7867,215.6288 282.8746,216.003 282.9671,216.3757 C283.1522,217.1211 283.3559,217.8604 283.5795,218.592 C284.0267,220.0553 284.5533,221.4879 285.1687,222.8775 C286.3994,225.6566 287.985,228.2631 290,230.5969 C325.08,271.2069 461.0135,292.1941 557.4735,302.4241" fill="none" id="Sensor-to-ECU" style="stroke:#000000;stroke-width:1;"/><polygon fill="#000000" points="563.44,303.0569,554.912,298.13,558.4679,302.5296,554.0683,306.0854,563.44,303.0569" style="stroke:#000000;stroke-width:1;"/><text fill="#000000" font-family="sans-serif" font-size="13" lengthAdjust="spacing" textLength="98.4902" x="327" y="251.6638">Raw Echo Data</text></g><!--link IMU to ECU--><g class="link" data-entity-1="ent0006" data-entity-2="ent0008" data-link-type="dependency" data-source-line="39" id="lnk17"><path d="M656,198.9769 C656,223.6669 656,254.8569 656,279.4969" fill="none" id="IMU-to-ECU" style="stroke:#000000;stroke-width:1;"/><polygon fill="#000000" points="656,285.4969,660,276.4969,656,280.4969,652,276.4969,656,285.4969" style="stroke:#000000;stroke-width:1;"/><text fill="#000000" font-family="sans-serif" font-size="13" lengthAdjust="spacing" textLength="138.0425" x="657" y="251.6638">Orientation / Velocity</text></g><!--link GPS to ECU--><g class="link" data-entity-1="ent0007" data-entity-2="ent0008" data-link-type="dependency" data-source-line="40" id="lnk18"><path d="M1091.79,190.8369 C1078.75,203.7669 1059.32,220.7969 1039,230.5969 C946.13,275.3569 834.7443,294.6129 754.5743,303.4029" fill="none" id="GPS-to-ECU" style="stroke:#000000;stroke-width:1;"/><polygon fill="#000000" points="748.61,304.0569,757.9923,307.0521,753.5802,303.5119,757.1204,299.0998,748.61,304.0569" style="stroke:#000000;stroke-width:1;"/><text fill="#000000" font-family="sans-serif" font-size="13" lengthAdjust="spacing" textLength="121.1704" x="1020" y="251.6638">Crude Location Fix</text></g><!--link ECU to Telemetry--><g class="link" data-entity-1="ent0008" data-entity-2="ent0009" data-link-type="dependency" data-source-line="42" id="lnk19"><path d="M656,338.4069 C656,360.6569 656,386.7769 656,409.0169" fill="none" id="ECU-to-Telemetry" style="stroke:#000000;stroke-width:1;"/><polygon fill="#000000" points="656,415.0169,660,406.0169,656,410.0169,652,406.0169,656,415.0169" style="stroke:#000000;stroke-width:1;"/><text fill="#000000" font-family="sans-serif" font-size="13" lengthAdjust="spacing" textLength="160.5005" x="657" y="381.2538">Processed "Slice" Packet</text></g><!--link API to SLAM--><g class="link" data-entity-1="ent0023" data-entity-2="ent0024" data-link-type="dependency" data-source-line="58" id="lnk28"><path d="M656,765.7969 C656,788.7069 656,822.5569 656,845.4769" fill="none" id="API-to-SLAM" style="stroke:#000000;stroke-width:1;"/><polygon fill="#000000" points="656,851.4769,660,842.4769,656,846.4769,652,842.4769,656,851.4769" style="stroke:#000000;stroke-width:1;"/><text fill="#000000" font-family="sans-serif" font-size="13" lengthAdjust="spacing" textLength="117.8315" x="657" y="808.4438">Aggregated Slices</text></g><!--link SLAM to VoxelDB--><g class="link" data-entity-1="ent0024" data-entity-2="ent0025" data-link-type="dependency" data-source-line="59" id="lnk29"><path d="M658.56,888.4669 C661.82,910.6169 666.6037,943.1112 670.3637,968.5812" fill="none" id="SLAM-to-VoxelDB" style="stroke:#000000;stroke-width:1;"/><polygon fill="#000000" points="671.24,974.5169,673.8827,965.0292,670.5098,969.5705,665.9685,966.1975,671.24,974.5169" style="stroke:#000000;stroke-width:1;"/><text fill="#000000" font-family="sans-serif" font-size="13" lengthAdjust="spacing" textLength="156.1206" x="667" y="940.8438">Occupancy Probabilities</text></g><!--link SLAM to Monitor--><g class="link" data-entity-1="ent0024" data-entity-2="ent0026" data-link-type="dependency" data-source-line="60" id="lnk30"><path d="M716.53,888.6169 C758.84,901.2569 811.34,917.7769 832,927.7769 C863.68,943.1069 892.0829,962.9665 913.1629,978.9865" fill="none" id="SLAM-to-Monitor" style="stroke:#000000;stroke-width:1;"/><polygon fill="#000000" points="917.94,982.6169,913.1947,973.9866,913.9591,979.5916,908.3542,980.356,917.94,982.6169" style="stroke:#000000;stroke-width:1;"/><text fill="#000000" font-family="sans-serif" font-size="13" lengthAdjust="spacing" textLength="124.3062" x="861" y="940.8438">Anomaly Detection</text></g><!--link VoxelDB to Routing--><g class="link" data-entity-1="ent0025" data-entity-2="ent0027" data-link-type="dependency" data-source-line="61" id="lnk31"><path d="M675,1027.6969 C675,1050.7269 675,1077.9369 675,1098.0469" fill="none" id="VoxelDB-to-Routing" style="stroke:#000000;stroke-width:1;"/><polygon fill="#000000" points="675,1104.0469,679,1095.0469,675,1099.0469,671,1095.0469,675,1104.0469" style="stroke:#000000;stroke-width:1;"/><text fill="#000000" font-family="sans-serif" font-size="13" lengthAdjust="spacing" textLength="122.4082" x="676" y="1070.4338">3D Geometry Data</text></g><!--link Telemetry to Net--><g class="link" data-entity-1="ent0009" data-entity-2="ent0021" data-link-type="dependency" data-source-line="77" id="lnk39"><path d="M656,468.0769 C656,496.1969 656,534.8969 656,561.4769" fill="none" id="Telemetry-to-Net" style="stroke:#000000;stroke-width:1;"/><polygon fill="#000000" points="656,567.4769,660,558.4769,656,562.4769,652,558.4769,656,567.4769" style="stroke:#000000;stroke-width:1;"/><text fill="#000000" font-family="sans-serif" font-size="13" lengthAdjust="spacing" textLength="80.7231" x="657" y="512.8438">Upload Data</text></g><!--link Net to API--><g class="link" data-entity-1="ent0021" data-entity-2="ent0023" data-link-type="dependency" data-source-line="78" id="lnk40"><path d="M656,613.2769 C656,644.2769 656,694.4169 656,722.7969" fill="none" id="Net-to-API" style="stroke:#000000;stroke-width:1;"/><polygon fill="#000000" points="656,728.7969,660,719.7969,656,723.7969,652,719.7969,656,728.7969" style="stroke:#000000;stroke-width:1;"/><text fill="#000000" font-family="sans-serif" font-size="13" lengthAdjust="spacing" textLength="107.4531" x="657" y="658.1438">Forward Packets</text></g><!--link Routing to UserApp--><g class="link" data-entity-1="ent0027" data-entity-2="ent0036" data-link-type="dependency" data-source-line="80" id="lnk41"><path d="M632.71,1141.1469 C612.18,1152.6369 593.58,1169.2669 602,1189.6669 C610.28,1209.7069 622.098,1223.3597 637.538,1236.5497" fill="none" id="Routing-to-UserApp" style="stroke:#000000;stroke-width:1;"/><polygon fill="#000000" points="642.1,1240.4469,637.8551,1231.5597,638.2983,1237.1992,632.6589,1237.6424,642.1,1240.4469" style="stroke:#000000;stroke-width:1;"/><text fill="#000000" font-family="sans-serif" font-size="13" lengthAdjust="spacing" textLength="214.1636" x="603" y="1185.7338">Optimized Routes (Needs based)</text></g><!--link Monitor to GovApp--><g class="link" data-entity-1="ent0026" data-entity-2="ent0037" data-link-type="dependency" data-source-line="81" id="lnk42"><path d="M959.75,1019.5269 C979.67,1038.3569 1009.63,1070.2669 1025,1104.3669 C1045.24,1149.2669 1049.4096,1201.5381 1050.0696,1234.4181" fill="none" id="Monitor-to-GovApp" style="stroke:#000000;stroke-width:1;"/><polygon fill="#000000" points="1050.19,1240.4169,1054.0086,1231.3384,1050.0897,1235.4179,1046.0102,1231.499,1050.19,1240.4169" style="stroke:#000000;stroke-width:1;"/><text fill="#000000" font-family="sans-serif" font-size="13" lengthAdjust="spacing" textLength="189.1729" x="1043" y="1127.0838">Pothole/Encroachment Alerts</text></g><!--link VoxelDB to DigitalTwin--><g class="link" data-entity-1="ent0025" data-entity-2="ent0038" data-link-type="dependency" data-source-line="82" id="lnk43"><path d="M740.56,1015.4769 C764.85,1023.6669 790.47,1036.7069 807,1057.3669 C830.67,1086.9469 839.82,1197.9989 842.65,1242.5889" fill="none" id="VoxelDB-to-DigitalTwin" style="stroke:#000000;stroke-width:1;"/><polygon fill="#000000" points="843.03,1248.5769,846.4519,1239.3416,842.7133,1243.5869,838.468,1239.8483,843.03,1248.5769" style="stroke:#000000;stroke-width:1;"/><text fill="#000000" font-family="sans-serif" font-size="13" lengthAdjust="spacing" textLength="171.6152" x="835" y="1127.0838">Real-time 3D Visualization</text></g><!--SRC=[VLPDRo974BtFhwWGAROF5avsyyKX4WQ6M3846Tiv93aqCyLGSa_tgBi75g_slwUgPmOmwmHBzj9Tt- -zwlqcnpKPX8V9w74udzvF8DFA-oIvW6NOQuJCcZKLjLE1hF69Vo5JAQTAlYWhQz24nivX5fGfD9wOh5JsKZXRctnajNNmRJgHd_U2mES4-7DxxZ7vAVqvJPixwt9qxVdtl_nwqvuFdRExzlWcVf8l9oag3gaAFAyo2HJuOBdt0KkEaMqey6NjS00Zsb86YrfxXCkHjHLA-rk43sEOgQeYKrmbIHiOUgb63F2C6yeuukKavyEvpV6grtOLVnrRxJtfu9ItXfDmyMh_jxdyUFFo-oiyEcLyNcVeF3ih3qiqdljgmiZdhqb98Q3xvtZoW1boSUtHbtSptisUsbYSQvXbgD7P4ZbGVxftjad6HkT-qyKIPZQlDKOB_dfkSMypfM4oUkB0a-NYmmymeynPfarmLdEQ9ZORd7i-SX5SWjkt6JZ02BMkjNBzFocbnl5WbKH_OmEZICKcW5stBRMZk0QPZGSogivfnL0qGsLaNNMmuManZpWkbIWXKXs3NJxQz2eQeSbZblVoTHEIG6CKldZOjhW7qg6_fLMZb6DDHd4f7dep5JPOygNCwnwtg9b6lRSf3z1Tm5W5nSNP7UmeRCXq_8hNBIskht-JmS807jGE9jd6HhTe8eWVx_zmn3EFbK6VGscRKTX7Gu7uQ3XoTOuWe4RRb3uTYn8BiJm2Du05GutUOmwzfQQCQR9WMM1W2Hu5CiUmi-wbaqFEDQuKQwjtPvY1XiNJXu_Jwn-d4V7vcVS2RQNnmiEire5Ac_Fyeb0gwm8ij0fhwqfXZxPr3YTw_Ky1nk7UcG9zx7Auk8kP-U-vvV9-E8Eqzc8sCGMloaQNV7nk-cm_eOu0I7DS3s-B4KyPfexoXipHP7pxbJhDclT1S7NSFom7Gy6wwD7- -zpZmTQ1wGFVWOZPow9mspX-zcal_vTDSLRD-bpSHLHZfmCO5eN3GWL6D0Bg6yB9fLYr7GYbigokbCdsme6LMf6cGEVcRVaIrzXIwNqhcquXNJYnxNeQo9gTecqeTY3qU_BlK12XZQnpKP12wB6ZTG26ZUDvuNq6X_dwWmlZoieiXLRCi8EIAtu0JwnkQzAyC0vTUedMWCsFmLi1l-5jlU81CaIpcZSzLKpRMpJyt6QaM8w-8-S9h7ErfQ9Hth2gc49F7Xqy4-uQ_iXNllYQ3IhdMeZLP1YHxbLZ_sFgOv2ftRuJ8p9rJ0K5aTUEJBHj3-Ixz7R1KpQcmS_3YcMDQBeNrYV7nI1uieuPowTAItKHHZcH6w7S05BhTihbxSBW_t9q112JjbFXMSMYfrVcezmpNfTpHCP3H9PV9Ht3nAdfJBQI3HkhiJyn_1IfR5DAYqD-Z3ZDAULEsfCbYafV1taNc83Fv6kbwJMYyIy0]--></g></svg>