<svg xmlns="http://www.w3.org/2000/svg" xmlns:xlink="http://www.w3.org/1999/xlink" contentStyleType="text/css" data-diagram-type="DESCRIPTION" height="718px" preserveAspectRatio="none" style="width:2099px;height:718px;background:#FFFFFF;" version="1.1" viewBox="0 0 2099 718" width="2099px" zoomAndPan="magnify"><defs/><g><!--cluster Federated Cooperative Structure--><g class="cluster" data-qualified-name="Federated Cooperative Structure" data-source-line="7" id="ent0002"><rect fill="none" height="705.63" rx="2.5" ry="2.5" style="stroke:#181818;stroke-width:1;" width="1571" x="7" y="7"/><text fill="#000000" font-family="sans-serif" font-size="11" font-weight="bold" lengthAdjust="spacing" textLength="205.3691" x="689.8154" y="19.2104">Federated Cooperative Structure</text></g><!--cluster participants--><g class="cluster" data-qualified-name="Federated Cooperative Structure.participants" data-source-line="9" id="ent0003"><rect fill="#ADD8E6" height="298.61" rx="2.5" ry="2.5" style="stroke:#181818;stroke-width:1;" width="323" x="692" y="54"/><text fill="#000000" font-family="sans-serif" font-size="11" font-weight="bold" lengthAdjust="spacing" textLength="102.2603" x="802.3699" y="66.2104">Participant Base</text></g><!--cluster decisions--><g class="cluster" data-qualified-name="Federated Cooperative Structure.decisions" data-source-line="15" id="ent0007"><rect fill="#90EE90" height="316.61" rx="2.5" ry="2.5" style="stroke:#181818;stroke-width:1;" width="435" x="1111" y="231.8"/><text fill="#000000" font-family="sans-serif" font-size="11" font-weight="bold" lengthAdjust="spacing" textLength="176.6714" x="1240.1643" y="244.0104">Democratic Decision-Making</text></g><!--cluster development--><g class="cluster" data-qualified-name="Federated Cooperative Structure.development" data-source-line="22" id="ent0012"><rect fill="#FFFFE0" height="253.02" rx="2.5" ry="2.5" style="stroke:#181818;stroke-width:1;" width="561" x="510" y="427.61"/><text fill="#000000" font-family="sans-serif" font-size="11" font-weight="bold" lengthAdjust="spacing" textLength="140.0083" x="720.4958" y="439.8204">Platform Development</text></g><!--cluster operations--><g class="cluster" data-qualified-name="Federated Cooperative Structure.operations" data-source-line="30" id="ent0018"><rect fill="#FFB6C1" height="253.02" rx="2.5" ry="2.5" style="stroke:#181818;stroke-width:1;" width="431" x="39" y="427.61"/><text fill="#000000" font-family="sans-serif" font-size="11" font-weight="bold" lengthAdjust="spacing" textLength="129.3413" x="189.8293" y="439.8204">Operational Systems</text></g><!--entity Riders/Drivers--><g class="entity" data-qualified-name="Federated Cooperative Structure.participants.Riders.Drivers" data-source-line="10" id="ent0004"><rect fill="#F1F1F1" height="42.8047" rx="2.5" ry="2.5" style="stroke:#181818;stroke-width:0.5;" width="117.9883" x="716.01" y="108"/><rect fill="#F1F1F1" height="10" style="stroke:#181818;stroke-width:0.5;" width="15" x="813.9983" y="113"/><rect fill="#F1F1F1" height="2" style="stroke:#181818;stroke-width:0.5;" width="4" x="811.9983" y="115"/><rect fill="#F1F1F1" height="2" style="stroke:#181818;stroke-width:0.5;" width="4" x="811.9983" y="119"/><text fill="#000000" font-family="sans-serif" font-size="11" lengthAdjust="spacing" textLength="77.9883" x="731.01" y="138.2104">Riders/Drivers</text></g><!--entity Passengers--><g class="entity" data-qualified-name="Federated Cooperative Structure.participants.Passengers" data-source-line="11" id="ent0005"><rect fill="#F1F1F1" height="42.8047" rx="2.5" ry="2.5" style="stroke:#181818;stroke-width:0.5;" width="102.5786" x="868.71" y="108"/><rect fill="#F1F1F1" height="10" style="stroke:#181818;stroke-width:0.5;" width="15" x="951.2886" y="113"/><rect fill="#F1F1F1" height="2" style="stroke:#181818;stroke-width:0.5;" width="4" x="949.2886" y="115"/><rect fill="#F1F1F1" height="2" style="stroke:#181818;stroke-width:0.5;" width="4" x="949.2886" y="119"/><text fill="#000000" font-family="sans-serif" font-size="11" lengthAdjust="spacing" textLength="62.5786" x="883.71" y="138.2104">Passengers</text></g><!--entity Technical Support Cooperative--><g class="entity" data-qualified-name="Federated Cooperative Structure.participants.Technical Support Cooperative" data-source-line="12" id="ent0006"><rect fill="#F1F1F1" height="42.8047" rx="2.5" ry="2.5" style="stroke:#181818;stroke-width:0.5;" width="209.6567" x="716.17" y="285.8"/><rect fill="#F1F1F1" height="10" style="stroke:#181818;stroke-width:0.5;" width="15" x="905.8267" y="290.8"/><rect fill="#F1F1F1" height="2" style="stroke:#181818;stroke-width:0.5;" width="4" x="903.8267" y="292.8"/><rect fill="#F1F1F1" height="2" style="stroke:#181818;stroke-width:0.5;" width="4" x="903.8267" y="296.8"/><text fill="#000000" font-family="sans-serif" font-size="11" lengthAdjust="spacing" textLength="169.6567" x="731.17" y="316.0104">Technical Support Cooperative</text></g><!--entity Neighborhood Assemblies--><g class="entity" data-qualified-name="Federated Cooperative Structure.decisions.Neighborhood Assemblies" data-source-line="16" id="ent0008"><rect fill="#F1F1F1" height="42.8047" rx="2.5" ry="2.5" style="stroke:#181818;stroke-width:0.5;" width="183.2148" x="1154.39" y="285.8"/><rect fill="#F1F1F1" height="10" style="stroke:#181818;stroke-width:0.5;" width="15" x="1317.6048" y="290.8"/><rect fill="#F1F1F1" height="2" style="stroke:#181818;stroke-width:0.5;" width="4" x="1315.6048" y="292.8"/><rect fill="#F1F1F1" height="2" style="stroke:#181818;stroke-width:0.5;" width="4" x="1315.6048" y="296.8"/><text fill="#000000" font-family="sans-serif" font-size="11" lengthAdjust="spacing" textLength="143.2148" x="1169.39" y="316.0104">Neighborhood Assemblies</text></g><!--entity Citywide Councils--><g class="entity" data-qualified-name="Federated Cooperative Structure.decisions.Citywide Councils" data-source-line="17" id="ent0009"><rect fill="#F1F1F1" height="42.8047" rx="2.5" ry="2.5" style="stroke:#181818;stroke-width:0.5;" width="137.104" x="1372.45" y="285.8"/><rect fill="#F1F1F1" height="10" style="stroke:#181818;stroke-width:0.5;" width="15" x="1489.554" y="290.8"/><rect fill="#F1F1F1" height="2" style="stroke:#181818;stroke-width:0.5;" width="4" x="1487.554" y="292.8"/><rect fill="#F1F1F1" height="2" style="stroke:#181818;stroke-width:0.5;" width="4" x="1487.554" y="296.8"/><text fill="#000000" font-family="sans-serif" font-size="11" lengthAdjust="spacing" textLength="97.104" x="1387.45" y="316.0104">Citywide Councils</text></g><!--entity National Coordination--><g class="entity" data-qualified-name="Federated Cooperative Structure.decisions.National Coordination" data-source-line="18" id="ent0010"><rect fill="#F1F1F1" height="42.8047" rx="2.5" ry="2.5" style="stroke:#181818;stroke-width:0.5;" width="159.8184" x="1143.09" y="481.61"/><rect fill="#F1F1F1" height="10" style="stroke:#181818;stroke-width:0.5;" width="15" x="1282.9084" y="486.61"/><rect fill="#F1F1F1" height="2" style="stroke:#181818;stroke-width:0.5;" width="4" x="1280.9084" y="488.61"/><rect fill="#F1F1F1" height="2" style="stroke:#181818;stroke-width:0.5;" width="4" x="1280.9084" y="492.61"/><text fill="#000000" font-family="sans-serif" font-size="11" lengthAdjust="spacing" textLength="119.8184" x="1158.09" y="511.8204">National Coordination</text></g><!--entity Thematic Working Groups--><g class="entity" data-qualified-name="Federated Cooperative Structure.decisions.Thematic Working Groups" data-source-line="19" id="ent0011"><rect fill="#F1F1F1" height="42.8047" rx="2.5" ry="2.5" style="stroke:#181818;stroke-width:0.5;" width="183.2954" x="1338.35" y="481.61"/><rect fill="#F1F1F1" height="10" style="stroke:#181818;stroke-width:0.5;" width="15" x="1501.6454" y="486.61"/><rect fill="#F1F1F1" height="2" style="stroke:#181818;stroke-width:0.5;" width="4" x="1499.6454" y="488.61"/><rect fill="#F1F1F1" height="2" style="stroke:#181818;stroke-width:0.5;" width="4" x="1499.6454" y="492.61"/><text fill="#000000" font-family="sans-serif" font-size="11" lengthAdjust="spacing" textLength="143.2954" x="1353.35" y="511.8204">Thematic Working Groups</text></g><!--entity Proposal Submission--><g class="entity" data-qualified-name="Federated Cooperative Structure.development.Proposal Submission" data-source-line="23" id="ent0013"><rect fill="#F1F1F1" height="42.8047" rx="2.5" ry="2.5" style="stroke:#181818;stroke-width:0.5;" width="153.5503" x="534.22" y="481.61"/><rect fill="#F1F1F1" height="10" style="stroke:#181818;stroke-width:0.5;" width="15" x="667.7703" y="486.61"/><rect fill="#F1F1F1" height="2" style="stroke:#181818;stroke-width:0.5;" width="4" x="665.7703" y="488.61"/><rect fill="#F1F1F1" height="2" style="stroke:#181818;stroke-width:0.5;" width="4" x="665.7703" y="492.61"/><text fill="#000000" font-family="sans-serif" font-size="11" lengthAdjust="spacing" textLength="113.5503" x="549.22" y="511.8204">Proposal Submission</text></g><!--entity Quadratic Voting--><g class="entity" data-qualified-name="Federated Cooperative Structure.development.Quadratic Voting" data-source-line="24" id="ent0014"><rect fill="#F1F1F1" height="42.8047" rx="2.5" ry="2.5" style="stroke:#181818;stroke-width:0.5;" width="133.1079" x="722.45" y="481.61"/><rect fill="#F1F1F1" height="10" style="stroke:#181818;stroke-width:0.5;" width="15" x="835.5579" y="486.61"/><rect fill="#F1F1F1" height="2" style="stroke:#181818;stroke-width:0.5;" width="4" x="833.5579" y="488.61"/><rect fill="#F1F1F1" height="2" style="stroke:#181818;stroke-width:0.5;" width="4" x="833.5579" y="492.61"/><text fill="#000000" font-family="sans-serif" font-size="11" lengthAdjust="spacing" textLength="93.1079" x="737.45" y="511.8204">Quadratic Voting</text></g><!--entity Vibecoding Phase--><g class="entity" data-qualified-name="Federated Cooperative Structure.development.Vibecoding Phase" data-source-line="25" id="ent0015"><rect fill="#F1F1F1" height="42.8047" rx="2.5" ry="2.5" style="stroke:#181818;stroke-width:0.5;" width="137.4424" x="890.28" y="481.61"/><rect fill="#F1F1F1" height="10" style="stroke:#181818;stroke-width:0.5;" width="15" x="1007.7224" y="486.61"/><rect fill="#F1F1F1" height="2" style="stroke:#181818;stroke-width:0.5;" width="4" x="1005.7224" y="488.61"/><rect fill="#F1F1F1" height="2" style="stroke:#181818;stroke-width:0.5;" width="4" x="1005.7224" y="492.61"/><text fill="#000000" font-family="sans-serif" font-size="11" lengthAdjust="spacing" textLength="97.4424" x="905.28" y="511.8204">Vibecoding Phase</text></g><!--entity Progressive Testing--><g class="entity" data-qualified-name="Federated Cooperative Structure.development.Progressive Testing" data-source-line="26" id="ent0016"><rect fill="#F1F1F1" height="42.8047" rx="2.5" ry="2.5" style="stroke:#181818;stroke-width:0.5;" width="147.9912" x="537" y="613.83"/><rect fill="#F1F1F1" height="10" style="stroke:#181818;stroke-width:0.5;" width="15" x="664.9912" y="618.83"/><rect fill="#F1F1F1" height="2" style="stroke:#181818;stroke-width:0.5;" width="4" x="662.9912" y="620.83"/><rect fill="#F1F1F1" height="2" style="stroke:#181818;stroke-width:0.5;" width="4" x="662.9912" y="624.83"/><text fill="#000000" font-family="sans-serif" font-size="11" lengthAdjust="spacing" textLength="107.9912" x="552" y="644.0404">Progressive Testing</text></g><!--entity Generalization--><g class="entity" data-qualified-name="Federated Cooperative Structure.development.Generalization" data-source-line="27" id="ent0017"><rect fill="#F1F1F1" height="42.8047" rx="2.5" ry="2.5" style="stroke:#181818;stroke-width:0.5;" width="119.9917" x="720" y="613.83"/><rect fill="#F1F1F1" height="10" style="stroke:#181818;stroke-width:0.5;" width="15" x="819.9917" y="618.83"/><rect fill="#F1F1F1" height="2" style="stroke:#181818;stroke-width:0.5;" width="4" x="817.9917" y="620.83"/><rect fill="#F1F1F1" height="2" style="stroke:#181818;stroke-width:0.5;" width="4" x="817.9917" y="624.83"/><text fill="#000000" font-family="sans-serif" font-size="11" lengthAdjust="spacing" textLength="79.9917" x="735" y="644.0404">Generalization</text></g><!--entity Route Optimization--><g class="entity" data-qualified-name="Federated Cooperative Structure.operations.Route Optimization" data-source-line="31" id="ent0019"><rect fill="#F1F1F1" height="42.8047" rx="2.5" ry="2.5" style="stroke:#181818;stroke-width:0.5;" width="146.2886" x="62.86" y="481.61"/><rect fill="#F1F1F1" height="10" style="stroke:#181818;stroke-width:0.5;" width="15" x="189.1486" y="486.61"/><rect fill="#F1F1F1" height="2" style="stroke:#181818;stroke-width:0.5;" width="4" x="187.1486" y="488.61"/><rect fill="#F1F1F1" height="2" style="stroke:#181818;stroke-width:0.5;" width="4" x="187.1486" y="492.61"/><text fill="#000000" font-family="sans-serif" font-size="11" lengthAdjust="spacing" textLength="106.2886" x="77.86" y="511.8204">Route Optimization</text></g><!--entity Compensation Algorithms--><g class="entity" data-qualified-name="Federated Cooperative Structure.operations.Compensation Algorithms" data-source-line="32" id="ent0020"><rect fill="#F1F1F1" height="42.8047" rx="2.5" ry="2.5" style="stroke:#181818;stroke-width:0.5;" width="182.4897" x="243.76" y="481.61"/><rect fill="#F1F1F1" height="10" style="stroke:#181818;stroke-width:0.5;" width="15" x="406.2497" y="486.61"/><rect fill="#F1F1F1" height="2" style="stroke:#181818;stroke-width:0.5;" width="4" x="404.2497" y="488.61"/><rect fill="#F1F1F1" height="2" style="stroke:#181818;stroke-width:0.5;" width="4" x="404.2497" y="492.61"/><text fill="#000000" font-family="sans-serif" font-size="11" lengthAdjust="spacing" textLength="142.4897" x="258.76" y="511.8204">Compensation Algorithms</text></g><!--entity Emergency Response--><g class="entity" data-qualified-name="Federated Cooperative Structure.operations.Emergency Response" data-source-line="33" id="ent0021"><rect fill="#F1F1F1" height="42.8047" rx="2.5" ry="2.5" style="stroke:#181818;stroke-width:0.5;" width="159.0557" x="63.47" y="613.83"/><rect fill="#F1F1F1" height="10" style="stroke:#181818;stroke-width:0.5;" width="15" x="202.5257" y="618.83"/><rect fill="#F1F1F1" height="2" style="stroke:#181818;stroke-width:0.5;" width="4" x="200.5257" y="620.83"/><rect fill="#F1F1F1" height="2" style="stroke:#181818;stroke-width:0.5;" width="4" x="200.5257" y="624.83"/><text fill="#000000" font-family="sans-serif" font-size="11" lengthAdjust="spacing" textLength="119.0557" x="78.47" y="644.0404">Emergency Response</text></g><!--entity Quality Assurance--><g class="entity" data-qualified-name="Federated Cooperative Structure.operations.Quality Assurance" data-source-line="34" id="ent0022"><rect fill="#F1F1F1" height="42.8047" rx="2.5" ry="2.5" style="stroke:#181818;stroke-width:0.5;" width="139.811" x="257.09" y="613.83"/><rect fill="#F1F1F1" height="10" style="stroke:#181818;stroke-width:0.5;" width="15" x="376.901" y="618.83"/><rect fill="#F1F1F1" height="2" style="stroke:#181818;stroke-width:0.5;" width="4" x="374.901" y="620.83"/><rect fill="#F1F1F1" height="2" style="stroke:#181818;stroke-width:0.5;" width="4" x="374.901" y="624.83"/><text fill="#000000" font-family="sans-serif" font-size="11" lengthAdjust="spacing" textLength="99.811" x="272.09" y="644.0404">Quality Assurance</text></g><g class="entity" data-qualified-name="GMN27" data-source-line="44" id="ent0028"><path d="M1593.56,453.19 L1593.56,552.8228 L1812.4311,552.8228 L1812.4311,463.19 L1802.4311,453.19 L1593.56,453.19" fill="#FEFFDD" style="stroke:#181818;stroke-width:0.5;"/><path d="M1802.4311,453.19 L1802.4311,463.19 L1812.4311,463.19 L1802.4311,453.19" fill="#FEFFDD" style="stroke:#181818;stroke-width:1;"/><text fill="#000000" font-family="sans-serif" font-size="11" font-weight="bold" lengthAdjust="spacing" textLength="197.2856" x="1599.56" y="468.4004">Democratic Versioning Process:</text><text fill="#000000" font-family="sans-serif" font-size="11" lengthAdjust="spacing" textLength="186.6885" x="1599.56" y="481.2051">1. Anyone proposes improvement</text><text fill="#000000" font-family="sans-serif" font-size="11" lengthAdjust="spacing" textLength="197.8711" x="1599.56" y="494.0098">2. Community deliberation + voting</text><text fill="#000000" font-family="sans-serif" font-size="11" lengthAdjust="spacing" textLength="165.7466" x="1599.56" y="506.8145">3. Vibecoding implementation</text><text fill="#000000" font-family="sans-serif" font-size="11" lengthAdjust="spacing" textLength="145.1055" x="1599.56" y="519.6192">4. Volunteer driver testing</text><text fill="#000000" font-family="sans-serif" font-size="11" lengthAdjust="spacing" textLength="185.7646" x="1599.56" y="532.4239">5. Refinement based on feedback</text><text fill="#000000" font-family="sans-serif" font-size="11" lengthAdjust="spacing" textLength="162.7603" x="1599.56" y="545.2286">6. Systemwide generalization</text></g><g class="entity" data-qualified-name="GMN30" data-source-line="54" id="ent0031"><path d="M1847.76,466 L1847.76,540.0234 L2092.2351,540.0234 L2092.2351,476 L2082.2351,466 L1847.76,466" fill="#FEFFDD" style="stroke:#181818;stroke-width:0.5;"/><path d="M2082.2351,466 L2082.2351,476 L2092.2351,476 L2082.2351,466" fill="#FEFFDD" style="stroke:#181818;stroke-width:1;"/><text fill="#000000" font-family="sans-serif" font-size="11" font-weight="bold" lengthAdjust="spacing" textLength="142.4038" x="1853.76" y="481.2104">Operational Principles:</text><text fill="#000000" font-family="sans-serif" font-size="11" lengthAdjust="spacing" textLength="223.4751" x="1853.76" y="494.0151">&#8226; Transparency: All algorithms auditable</text><text fill="#000000" font-family="sans-serif" font-size="11" lengthAdjust="spacing" textLength="215.4077" x="1853.76" y="506.8198">&#8226; Equity: Cross-subsidization by design</text><text fill="#000000" font-family="sans-serif" font-size="11" lengthAdjust="spacing" textLength="184.8408" x="1853.76" y="519.6245">&#8226; Privacy: Minimal data collection</text><text fill="#000000" font-family="sans-serif" font-size="11" lengthAdjust="spacing" textLength="219.6187" x="1853.76" y="532.4292">&#8226; Safety: Community-defined standards</text></g><!--link participants to decisions--><g class="link" data-entity-1="ent0003" data-entity-2="ent0007" data-link-type="dependency" data-source-line="38" id="lnk23"><path d="M1015.3294,143.4781 C1016.2731,144.9594 1017.2852,146.548 1018.3595,148.2343 C1020.5081,151.6068 1022.9053,155.3696 1025.5014,159.4447 C1035.8859,175.745 1049.4531,197.0413 1063.0188,218.335 C1076.5844,239.6288 1090.1484,260.92 1100.5267,277.2103 C1103.1213,281.2829 1105.5167,285.0429 1107.6633,288.4123 C1108.7366,290.097 1109.7477,291.684 1110.6904,293.1636 C1110.7493,293.256 1107.584,288.2878 1107.6424,288.3794" fill="none" id="participants-to-decisions" style="stroke:#181818;stroke-width:1;"/><polygon fill="#181818" points="1110.8663,293.4397,1109.404,283.7,1108.1797,289.2228,1102.6569,287.9986,1110.8663,293.4397" style="stroke:#181818;stroke-width:1;"/><text fill="#000000" font-family="sans-serif" font-size="11" lengthAdjust="spacing" textLength="88.2363" x="1059.9595" y="192.0104">Elect delegates,</text><text fill="#000000" font-family="sans-serif" font-size="11" lengthAdjust="spacing" textLength="94.1553" x="1057" y="204.8151">propose changes</text></g><!--link decisions to development--><g class="link" data-entity-1="ent0007" data-entity-2="ent0012" data-link-type="dependency" data-source-line="39" id="lnk24"><path d="M1110.7434,311.0604 C1110.553,311.1311 1110.3599,311.2032 1110.164,311.2767 C1109.7723,311.4236 1109.3696,311.5758 1108.9565,311.7333 C1108.1302,312.0483 1107.2621,312.3846 1106.3555,312.7423 C1099.1028,315.6041 1089.3919,319.8344 1079.0113,325.4763 C1058.25,336.76 1034.81,353.69 1023,376.61 C1017.5,387.27 1016.19,393.73 1023,403.61 C1028.67,411.83 1037.51,404.01 1044,411.61 C1047.2813,415.4513 1050.0427,419.7159 1052.3625,424.2417 C1052.6525,424.8074 1052.9355,425.3772 1053.2119,425.9508 C1053.35,426.2376 1053.4865,426.5253 1053.6213,426.8139 C1053.6887,426.9582 1051.2487,421.6516 1051.3153,421.7964" fill="none" id="decisions-to-development" style="stroke:#181818;stroke-width:1;"/><polygon fill="#181818" points="1053.8223,427.2475,1053.6959,417.3995,1051.7331,422.7049,1046.4277,420.7421,1053.8223,427.2475" style="stroke:#181818;stroke-width:1;"/><text fill="#000000" font-family="sans-serif" font-size="11" lengthAdjust="spacing" textLength="102.4268" x="1024" y="387.8204">Approve roadmap,</text><text fill="#000000" font-family="sans-serif" font-size="11" lengthAdjust="spacing" textLength="69.0454" x="1040.6907" y="400.6251">set priorities</text></g><!--link development to operations--><g class="link" data-entity-1="ent0012" data-entity-2="ent0018" data-link-type="dependency" data-source-line="40" id="lnk25"><path d="M1056.2005,427.6002 C1056.1328,427.4661 1056.0647,427.3322 1055.9961,427.1986 C1055.7216,426.6644 1055.4397,426.1346 1055.1502,425.6095 C1054.5711,424.5595 1053.9615,423.5285 1053.32,422.5192 C1050.7541,418.482 1047.6775,414.7913 1044,411.61 C991.62,366.29 801.74,398.62 732.5,400.42 C637.07,402.91 600.05,362.8 518,411.61 C498.805,423.025 485.3,443.82 476.3688,462.6938 C474.1359,467.4122 472.189,472.0105 470.5104,476.3122 C470.4055,476.5811 470.3017,476.8488 470.1989,477.1153 C470.1475,477.2485 472.2454,471.7796 472.1945,471.9122" fill="none" id="development-to-operations" style="stroke:#181818;stroke-width:1;"/><polygon fill="#181818" points="470.0454,477.5141,477.0037,470.544,471.8363,472.8459,469.5345,467.6785,470.0454,477.5141" style="stroke:#181818;stroke-width:1;"/><text fill="#000000" font-family="sans-serif" font-size="11" lengthAdjust="spacing" textLength="125.2915" x="733.5" y="387.8204">Deploy improvements,</text><text fill="#000000" font-family="sans-serif" font-size="11" lengthAdjust="spacing" textLength="100.5415" x="745.875" y="400.6251">monitor outcomes</text></g><!--link operations to participants--><g class="link" data-entity-1="ent0018" data-entity-2="ent0003" data-link-type="dependency" data-source-line="41" id="lnk26"><path d="M470.2018,455.1045 C470.2788,454.7467 470.3564,454.3874 470.4347,454.0265 C470.7478,452.5829 471.0712,451.1149 471.4051,449.6235 C472.7405,443.658 474.2438,437.3192 475.9303,430.6813 C479.3033,417.4053 483.4094,402.9325 488.3725,387.855 C508.225,327.545 541.79,257.56 597,215.8 C614.5188,202.5487 631.3164,192.8633 647.6039,185.9006 C655.7477,182.4193 663.7639,179.6187 671.6789,177.3934 C675.6364,176.2807 679.5687,175.3119 683.4789,174.4738 C685.434,174.0547 687.3836,173.6683 689.3281,173.3129 C689.8143,173.224 684.39,174.1718 684.8755,174.0868" fill="none" id="operations-to-participants" style="stroke:#181818;stroke-width:1;"/><polygon fill="#181818" points="690.7856,173.0521,681.2306,170.6641,685.8605,173.9144,682.6102,178.5442,690.7856,173.0521" style="stroke:#181818;stroke-width:1;"/><text fill="#000000" font-family="sans-serif" font-size="11" lengthAdjust="spacing" textLength="91.8188" x="602.6379" y="304.9104">Service delivery,</text><text fill="#000000" font-family="sans-serif" font-size="11" lengthAdjust="spacing" textLength="101.0947" x="598" y="317.7151">data transparency</text></g><!--link development to GMN27--><g class="link" data-entity-1="ent0012" data-entity-2="ent0028" data-link-type="association" data-source-line="44" id="lnk29"><path d="M1071.1431,480.9852 C1071.2697,480.6838 1071.3977,480.3802 1071.5273,480.0745 C1071.7865,479.4631 1072.0517,478.8432 1072.3229,478.2154 C1073.4078,475.704 1074.5892,473.065 1075.8683,470.3291 C1078.4263,464.8575 1081.3747,458.9988 1084.7213,453 C1098.1075,429.005 1117.865,402.77 1144.5,390.11 C1182.23,372.17 1480.31,378.68 1520.5,390.11 C1564.22,402.54 1607.72,428.76 1641.28,452.81" fill="none" id="development-GMN27" style="stroke:#181818;stroke-width:1;stroke-dasharray:7,7;"/></g><!--link GMN30 to operations--><g class="link" data-entity-1="ent0031" data-entity-2="ent0018" data-link-type="association" data-source-line="54" id="lnk32"><path d="M1932.42,465.6 C1902.69,438.8 1858.62,404.93 1812.5,390.11 C1744.96,368.4 599.57,359.64 535.5,390.11 C509.73,402.36 491.83,428.575 480.1513,452.6625 C477.2316,458.6844 474.7007,464.5733 472.5329,470.0778 C471.991,471.4539 471.4717,472.806 470.9747,474.1301 C470.7263,474.7922 470.4833,475.4473 470.246,476.0949 C470.1866,476.2568 470.1276,476.4182 470.0689,476.5792" fill="none" id="GMN30-operations" style="stroke:#181818;stroke-width:1;stroke-dasharray:7,7;"/></g><!--SRC=[RLLDRnCn4BtlhnZ2hP2WydN80IcqeHSeeQcA473msfEDLTjZR6-g527nM_Xf_1B6tjra4KWv9ECtCs_UF3iF56wqGxXQdbqlBY_UBa4Q4MDLnLljl0Z2GjmAHNVQDR0H9kBeX7D5Qz8RSccjxn5EJqU7NiXRqU0wxGr2G9c4QmnMLH-7oHjK64H21MT4Fd_LEuHr2grCRS09VAy0-7F8XSbAXAIbzi8bU2qYOqJaHeTWX8TlTRDDhqsB9HtWyvNcDl79UU3g8NxjWYkU4Lrp35oZt3ejXO5rwps5D2QLCJ_-8NEEbcG6I3X7gQCcDtqdUFwcq59zRE1q4H3TGEeIELHJs18fM30NMnkD0vapdVPtJ9ivj4vgCyGlkHavviZSWjAk_1m6sA8jN3vIo1pW8b3hu_-fhun86mgMYU_GaBVeKa_wyBkd_GcDeRk1zogGfrXKggsEyTZ_GojK9yOD9UxVXszqZP9K9hJQyiQ-7keq0JcVDtwDSPHmWOvLD_h-CDo_zDztYobIhFSneOs5FGtnGVELThS77r2R4DxxfEseU5QRh4SNImWMfg6WqzOEcYyjXWQTtCCLHi-byJYmuJtbxRL1EDcxv4Ts-CYGq-chaHNcC5aQ7eH31XisVtpynVaYAeBSydmO9zKHtsKVTyBv2yzubYsGK5Pupe-Om0UTUUik_PYG2unacMVRUaDxqBQKoQ3CmPBJYGAmI99ihZBAoaN-6ehBh37ijCGyIBvOUwwXH1AGM8l8u2pPfAeSiUWXxm9eCnw5nJev6LsX6xwBtAmO9P1aRynFJXXqEeE5snC_KRrCSKoT0KzdV1siRLrUHcPJzxpX4UoA5HdqR0OZ9t81Kz8BZe-Vyp6PrYN40Agy590wM_BfYndlFh-IHT6QNQo0osyGLSsF6IDUpdeVbblR_6NX2fs2B4ClXi5DqUAeRv5YxEbLq7pjcMElmU-Vl-1wfEkSRMf07AmAebKwYPgVrmwy_DQo6dCu2nJZDBPrrAgd0tLMAUh6zLXkjXEvvZljjENkPOsIJFPf9q-6hSK6Iyb1wsdtpw4WyhLK8gXucFGF]--></g></svg>